<?xml version="1.0" standalone="no"?>
<!DOCTYPE svg PUBLIC "-//W3C//DTD SVG 20010904//EN"
 "http://www.w3.org/TR/2001/REC-SVG-20010904/DTD/svg10.dtd">
<svg version="1.0" xmlns="http://www.w3.org/2000/svg"
 width="500.000000pt" height="500.000000pt" viewBox="0 0 500.000000 500.000000"
 preserveAspectRatio="xMidYMid meet">

<g transform="translate(0.000000,500.000000) scale(0.100000,-0.100000)"
fill="#000000" stroke="none">
<path d="M2402 3878 c-21 -8 -17 -9 105 -10 51 -1 96 1 99 5 8 8 -3 9 -109 11
-43 0 -85 -2 -95 -6z"/>
<path d="M2676 3870 c-11 -3 -15 -9 -10 -12 5 -3 18 -2 28 2 11 3 15 9 10 12
-5 3 -18 2 -28 -2z"/>
<path d="M2198 3850 c-48 -10 -124 -30 -168 -45 -64 -21 -80 -31 -80 -46 0
-11 5 -17 10 -14 6 4 8 11 5 16 -3 5 2 6 11 2 10 -3 15 -2 12 3 -4 5 4 10 15
11 23 2 60 10 65 13 1 2 5 3 10 4 4 1 13 5 20 9 6 5 12 5 12 1 0 -3 7 -1 15 6
8 7 15 9 15 5 0 -4 7 -2 15 5 8 6 19 9 24 6 5 -4 13 -1 16 5 4 5 13 8 21 5 7
-3 16 -1 20 5 3 5 13 9 22 8 10 -1 25 1 35 6 9 4 23 5 30 2 8 -3 20 -1 28 4
24 15 -58 9 -153 -11z"/>
<path d="M2724 3851 c4 -6 11 -9 15 -6 10 6 184 -41 214 -57 12 -7 25 -11 30
-10 4 1 7 -3 7 -9 0 -5 4 -8 9 -4 5 3 12 1 16 -5 4 -6 11 -8 16 -5 5 4 9 1 9
-5 0 -6 5 -8 10 -5 6 3 10 1 10 -5 0 -6 5 -8 10 -5 6 3 10 1 10 -5 0 -6 5 -8
10 -5 6 3 10 1 10 -5 0 -6 5 -8 10 -5 6 3 10 1 10 -6 0 -7 3 -10 6 -6 3 3 13
-1 22 -9 10 -8 20 -14 25 -14 4 0 17 -9 29 -20 12 -11 28 -20 35 -20 7 0 13
-5 13 -11 0 -6 7 -8 16 -5 34 13 236 -165 349 -309 22 -27 43 -51 48 -53 4 -2
7 -10 7 -18 0 -8 4 -14 9 -14 5 0 12 -11 15 -25 4 -14 11 -25 17 -25 12 0 -27
73 -68 128 -13 17 -22 32 -19 32 3 0 -11 17 -29 38 -19 20 -35 40 -35 43 0 8
-170 176 -174 172 -2 -2 -13 8 -25 23 -11 15 -21 23 -21 18 -1 -5 -9 1 -19 13
-10 12 -21 19 -25 16 -3 -3 -8 2 -12 11 -3 9 -10 13 -15 10 -5 -3 -12 2 -15
10 -3 9 -10 13 -15 10 -5 -3 -12 1 -15 9 -5 14 -34 20 -34 7 0 -4 -26 5 -57
21 -52 25 -88 40 -103 41 -3 0 -14 5 -25 11 -11 6 -22 12 -25 12 -29 5 -80 20
-100 28 -14 5 -34 11 -45 12 -11 1 -42 5 -69 10 -36 6 -47 5 -42 -4z"/>
<path d="M3287 3599 c7 -7 15 -10 18 -7 3 3 -2 9 -12 12 -14 6 -15 5 -6 -5z"/>
<path d="M1524 3508 l-29 -31 38 28 c38 28 44 35 29 35 -5 0 -21 -14 -38 -32z"/>
<path d="M3440 3466 c0 -2 8 -10 18 -17 15 -13 16 -12 3 4 -13 16 -21 21 -21
13z"/>
<path d="M1500 3422 c-37 -40 -49 -63 -15 -29 21 21 36 39 34 41 -2 2 -11 -3
-19 -12z"/>
<path d="M1429 3403 c-13 -16 -12 -17 4 -4 9 7 17 15 17 17 0 8 -8 3 -21 -13z"/>
<path d="M1369 3333 c-13 -16 -12 -17 4 -4 16 13 21 21 13 21 -2 0 -10 -8 -17
-17z"/>
<path d="M3715 3162 c17 -12 55 -89 48 -96 -3 -3 -1 -6 5 -6 16 0 16 4 -13 60
-14 28 -31 50 -38 50 -7 0 -8 -3 -2 -8z"/>
<path d="M3787 3020 c8 -17 16 -36 17 -43 1 -7 5 -18 9 -24 5 -7 5 -13 1 -13
-3 0 -1 -7 6 -15 7 -9 10 -18 7 -22 -4 -3 -3 -11 3 -18 5 -6 12 -29 15 -50 3
-22 8 -49 10 -60 2 -11 7 -42 11 -70 7 -56 28 -96 37 -71 4 9 2 18 -4 22 -6 3
-9 18 -8 32 1 15 -1 35 -5 44 -4 9 -5 21 -2 27 3 5 2 11 -3 13 -6 1 -12 19
-14 38 -2 19 -9 48 -16 63 -6 16 -9 33 -5 38 3 5 0 9 -6 9 -7 0 -10 7 -6 15 3
8 2 15 -2 15 -5 0 -16 23 -26 50 -10 28 -22 50 -26 50 -5 0 -2 -14 7 -30z"/>
<path d="M1170 3010 c0 -5 5 -10 11 -10 5 0 7 5 4 10 -3 6 -8 10 -11 10 -2 0
-4 -4 -4 -10z"/>
<path d="M1135 2900 c-3 -5 -1 -10 4 -10 6 0 11 5 11 10 0 6 -2 10 -4 10 -3 0
-8 -4 -11 -10z"/>
<path d="M1125 2860 c-3 -5 -1 -10 4 -10 6 0 11 5 11 10 0 6 -2 10 -4 10 -3 0
-8 -4 -11 -10z"/>
<path d="M1720 2778 c18 -30 20 -51 20 -263 0 -212 -2 -233 -20 -263 -11 -18
-20 -35 -20 -37 0 -3 68 -5 150 -5 83 0 150 3 150 7 0 3 -8 15 -17 26 -15 15
-19 42 -21 138 -4 115 -3 119 17 119 34 0 58 -34 70 -97 31 -159 61 -186 218
-191 57 -3 103 -1 103 3 0 4 -13 22 -28 39 -16 19 -44 78 -66 141 -43 122 -78
171 -133 181 -18 3 -33 8 -33 10 0 15 124 185 147 202 l28 21 -71 1 c-89 0
-103 -10 -187 -134 l-62 -91 -3 78 c-2 65 1 85 17 113 l20 34 -149 0 -150 0
20 -32z"/>
<path d="M2722 2773 c20 -21 66 -98 103 -172 l66 -133 -68 -100 c-37 -56 -80
-110 -95 -121 -16 -12 -28 -24 -28 -29 0 -4 35 -8 79 -8 l79 0 42 65 c23 36
45 65 49 65 4 0 21 -29 39 -65 l32 -65 142 0 142 0 -36 38 c-33 33 -168 286
-168 313 0 18 127 195 160 223 l32 26 -86 0 -85 0 -41 -60 c-22 -33 -43 -60
-45 -60 -3 0 -18 27 -35 60 l-30 60 -142 0 -142 0 36 -37z"/>
<path d="M3878 2546 c3 -33 7 -43 18 -39 10 4 14 -3 15 -23 0 -16 3 -23 6 -15
3 7 0 38 -6 67 -15 67 -38 73 -33 10z"/>
<path d="M1083 2515 c-1 -53 9 -89 25 -92 8 -2 12 9 12 32 0 24 -5 35 -14 35
-9 0 -16 13 -19 33 -3 28 -4 27 -4 -8z"/>
<path d="M1103 2355 c-6 -7 -9 -15 -6 -18 2 -3 7 -20 9 -39 5 -42 11 -76 19
-108 3 -14 8 -32 10 -40 2 -8 4 -16 5 -17 2 -2 4 -7 5 -13 1 -5 4 -12 5 -15 1
-3 4 -9 5 -15 1 -5 4 -12 5 -15 1 -3 4 -9 5 -15 1 -5 4 -12 5 -15 1 -3 3 -8 4
-12 1 -5 7 -17 13 -28 6 -11 12 -24 13 -30 1 -5 8 -21 16 -35 12 -21 14 -22
12 -5 -2 11 -6 22 -10 25 -4 3 -9 15 -11 25 -2 11 -7 28 -11 37 -4 9 -8 22
-10 30 -1 7 -4 18 -8 23 -12 20 -39 138 -34 151 3 7 1 16 -5 20 -6 3 -9 16 -8
27 1 12 -1 29 -4 37 -3 8 -7 25 -9 36 -2 18 -5 19 -15 9z"/>
<path d="M2465 2325 c-33 -32 -33 -84 -1 -122 19 -22 32 -28 66 -28 34 0 47 6
66 28 53 62 15 147 -66 147 -30 0 -47 -6 -65 -25z"/>
<path d="M3815 1990 c-3 -5 -1 -10 4 -10 6 0 11 5 11 10 0 6 -2 10 -4 10 -3 0
-8 -4 -11 -10z"/>
<path d="M1282 1805 c7 -16 18 -36 25 -43 7 -7 13 -20 13 -28 0 -8 5 -14 10
-14 6 0 10 -5 10 -12 0 -19 109 -159 179 -229 70 -70 210 -179 229 -179 7 0
12 -5 12 -11 0 -5 4 -8 9 -5 5 4 11 1 13 -5 2 -6 16 -12 31 -12 17 -1 25 -7
23 -14 -3 -8 1 -10 11 -6 12 5 14 3 8 -8 -7 -11 -5 -11 10 1 17 14 18 13 12
-4 -6 -14 -4 -16 5 -9 9 8 35 2 88 -18 41 -16 86 -31 100 -34 53 -10 85 -18
94 -23 18 -10 96 -13 96 -3 0 6 -6 8 -13 5 -16 -6 -191 44 -195 56 -2 5 -10 6
-18 3 -8 -3 -14 -1 -14 4 0 5 -6 10 -14 10 -20 0 -179 80 -203 102 -16 15 -23
17 -32 8 -7 -7 -12 -7 -11 -2 2 6 2 17 0 25 -1 11 -4 9 -10 -5 -7 -19 -9 -18
-19 8 -6 15 -13 27 -15 27 -3 0 -3 -7 1 -16 6 -16 -44 12 -101 58 -52 41 -176
161 -176 170 0 5 -15 24 -34 42 -33 34 -102 134 -100 145 1 3 -7 15 -18 26
-20 20 -20 20 -6 -10z"/>
<path d="M3517 1615 c-42 -49 -43 -61 -2 -17 24 24 50 62 43 62 -2 -1 -20 -21
-41 -45z"/>
<path d="M3535 1563 l-17 -28 23 22 c12 12 20 25 17 28 -3 3 -13 -7 -23 -22z"/>
<path d="M3395 1490 c-10 -11 -16 -22 -14 -24 2 -2 12 7 22 20 22 29 17 32 -8
4z"/>
<path d="M3450 1478 c-12 -22 -12 -22 6 -6 10 10 15 20 12 24 -4 3 -12 -5 -18
-18z"/>
<path d="M1600 1476 c0 -2 7 -9 15 -16 9 -7 15 -8 15 -2 0 5 -7 12 -15 16 -8
3 -15 4 -15 2z"/>
<path d="M3325 1429 c-4 -6 -5 -12 -2 -15 2 -3 7 2 10 11 7 17 1 20 -8 4z"/>
<path d="M1675 1410 c3 -5 8 -10 11 -10 2 0 4 5 4 10 0 6 -5 10 -11 10 -5 0
-7 -4 -4 -10z"/>
<path d="M3040 1249 c0 -5 -4 -8 -9 -5 -5 4 -11 2 -13 -3 -1 -5 -12 -11 -23
-13 -11 -1 -23 -7 -26 -11 -3 -4 -16 -9 -27 -10 -12 -1 -22 -5 -22 -10 0 -5
-6 -7 -14 -4 -8 3 -16 2 -18 -4 -2 -5 -18 -10 -36 -12 -17 -1 -32 -5 -32 -8 0
-4 -34 -12 -75 -20 -41 -7 -70 -16 -63 -20 6 -4 21 -3 34 1 12 5 31 9 41 9 24
1 55 7 74 15 9 4 27 8 40 10 13 2 37 9 53 15 16 6 37 13 48 15 11 1 24 9 29
17 7 12 9 12 9 -1 1 -12 3 -12 14 2 7 10 16 15 19 11 4 -3 7 3 7 15 0 12 -2
22 -5 22 -3 0 -5 -5 -5 -11z"/>
<path d="M2290 1140 c-18 -4 -21 -8 -10 -12 17 -6 58 6 44 14 -5 3 -20 2 -34
-2z"/>
<path d="M2375 1130 l-30 -6 35 -6 c19 -3 44 -2 54 2 18 6 18 7 -5 11 -13 3
-37 2 -54 -1z"/>
<path d="M2565 1130 l-30 -6 28 -6 c15 -3 42 -2 60 2 l32 6 -30 5 c-16 2 -43
2 -60 -1z"/>
</g>
</svg>
